<?xml version="1.0" standalone="no"?>
<!DOCTYPE svg PUBLIC "-//W3C//DTD SVG 20010904//EN"
 "http://www.w3.org/TR/2001/REC-SVG-20010904/DTD/svg10.dtd">
<svg version="1.0" xmlns="http://www.w3.org/2000/svg"
 width="831.000000pt" height="349.000000pt" viewBox="0 0 831.000000 349.000000"
 preserveAspectRatio="xMidYMid meet">

<g transform="translate(0.000000,349.000000) scale(0.100000,-0.100000)"
fill="#000000" stroke="none">
<path d="M3137 1690 l-52 -49 55 -56 55 -55 54 50 53 49 709 1 710 0 55 -52
55 -52 49 49 c28 27 50 54 50 60 0 6 -22 33 -50 60 l-50 49 -48 -47 -48 -47
-720 0 -720 0 -44 45 c-24 25 -48 45 -53 45 -5 0 -32 -22 -60 -50z m103 -15
l34 -35 -40 -40 -40 -40 -38 39 -37 38 38 37 c21 20 40 36 44 36 3 0 20 -16
39 -35z m1630 0 l34 -35 -35 -37 c-18 -21 -35 -40 -37 -42 -1 -3 -20 13 -42
34 l-40 39 37 38 c20 21 40 38 43 38 3 0 21 -16 40 -35z"/>
<path d="M2905 1670 c-18 -20 -31 -20 -1147 -20 -745 0 -1128 -3 -1128 -10 0
-7 381 -10 1124 -10 l1124 0 23 -25 c30 -31 40 -31 67 -2 28 29 28 38 -1 65
-29 27 -39 27 -62 2z m52 -26 c3 -8 1 -20 -6 -27 -14 -14 -47 15 -37 32 10 16
36 13 43 -5z"/>
<path d="M5050 1665 l-24 -26 32 -31 32 -32 28 27 28 27 1114 0 c613 0 1121 0
1128 0 7 0 10 5 7 10 -4 7 -393 10 -1134 10 -1115 0 -1128 0 -1146 20 -24 26
-37 25 -65 -5z m57 -21 c3 -8 1 -20 -6 -27 -14 -14 -47 15 -37 32 10 16 36 13
43 -5z"/>
</g>
</svg>
