<?xml version="1.0" standalone="no"?>
<!DOCTYPE svg PUBLIC "-//W3C//DTD SVG 20010904//EN"
 "http://www.w3.org/TR/2001/REC-SVG-20010904/DTD/svg10.dtd">
<svg version="1.0" xmlns="http://www.w3.org/2000/svg"
 width="512.000000pt" height="512.000000pt" viewBox="0 0 512.000000 512.000000"
 preserveAspectRatio="xMidYMid meet">

<g transform="translate(0.000000,512.000000) scale(0.100000,-0.100000)"
fill="#000000" stroke="none">
<path d="M2446 4149 c-73 -10 -121 -21 -280 -63 -71 -19 -123 -26 -190 -26
-201 -1 -282 -25 -382 -112 -64 -56 -73 -60 -199 -95 -159 -44 -199 -75 -302
-232 -42 -64 -116 -159 -163 -211 -93 -100 -144 -175 -176 -252 -18 -44 -22
-48 -99 -79 -100 -41 -236 -132 -297 -197 -61 -66 -88 -120 -88 -179 0 -37 -5
-53 -21 -67 -21 -17 -21 -24 -16 -115 5 -69 3 -117 -8 -169 -16 -78 -14 -99
21 -178 27 -62 66 -96 141 -124 32 -12 90 -38 128 -59 107 -58 167 -75 265
-74 173 2 278 57 467 244 119 116 208 189 232 189 20 0 21 -60 1 -203 -26
-195 -65 -441 -96 -602 -44 -235 -47 -260 -40 -288 3 -15 17 -33 29 -42 41
-26 459 -176 572 -205 203 -52 446 -60 905 -29 408 27 823 108 1079 210 206
82 257 192 197 429 -62 241 -100 468 -112 660 -3 58 -8 108 -10 111 -2 3 -4
47 -5 97 -1 51 -5 92 -10 92 -17 0 -9 39 14 63 12 14 138 85 279 157 280 144
373 209 467 322 104 126 170 308 156 428 -21 165 -98 252 -255 285 -62 13 -80
22 -119 59 -45 41 -76 56 -189 91 -29 8 -74 29 -100 44 -135 82 -430 121 -661
86 -96 -14 -126 -15 -202 -4 -119 16 -191 8 -264 -28 l-59 -30 -50 22 c-157
68 -377 97 -560 74z m915 -75 c66 -13 105 -14 184 -8 228 20 486 -7 606 -64
158 -76 181 -94 246 -192 34 -51 69 -100 79 -109 15 -15 16 -14 10 17 -3 18
-17 61 -31 95 -13 33 -23 63 -21 64 2 2 26 -19 54 -46 45 -44 58 -51 129 -66
43 -9 94 -28 114 -40 108 -70 120 -278 27 -443 -78 -138 -188 -234 -398 -347
-69 -37 -170 -96 -225 -132 -55 -35 -86 -52 -70 -38 26 22 109 79 299 204 55
36 176 161 247 255 60 78 119 181 101 175 -6 -2 -88 -86 -182 -186 -169 -179
-233 -236 -147 -130 65 80 152 215 188 291 34 73 54 206 30 206 -6 0 -11 -16
-11 -39 0 -112 -219 -395 -440 -568 -52 -41 -131 -112 -175 -156 -44 -45 -104
-101 -132 -124 -60 -50 -78 -93 -70 -164 4 -35 3 -49 -6 -49 -7 0 -68 -7 -136
-15 -68 -9 -126 -13 -129 -10 -10 10 21 92 64 167 24 42 81 134 127 205 108
166 156 255 205 379 77 192 123 419 121 585 l-2 84 -9 -70 c-18 -140 -59 -326
-94 -432 -53 -159 -128 -305 -264 -513 -156 -239 -180 -287 -180 -360 l0 -56
-128 -17 c-70 -9 -133 -17 -140 -17 -7 0 1 26 18 66 162 359 275 847 256 1094
-10 115 -48 280 -65 280 -3 0 -6 -57 -7 -128 0 -74 -8 -164 -18 -217 -43 -225
-143 -522 -303 -899 -44 -103 -54 -138 -51 -172 3 -41 2 -42 -32 -48 -19 -3
-104 -9 -188 -12 l-152 -7 59 122 c90 185 96 220 96 511 0 155 -4 254 -11 270
-10 22 -12 19 -22 -40 -6 -36 -25 -167 -42 -291 -17 -126 -41 -263 -55 -310
-33 -108 -55 -204 -55 -235 l0 -25 -122 7 c-152 8 -163 12 -171 58 -18 111
-394 886 -429 886 -5 0 -7 -8 -4 -17 3 -10 19 -66 36 -125 62 -219 236 -693
276 -755 14 -23 14 -23 -33 -17 -62 8 -304 52 -308 56 -2 2 -42 71 -91 153
-110 189 -179 293 -315 471 -113 151 -130 185 -150 314 -7 41 -15 79 -20 84
-17 19 -44 -108 -44 -205 0 -92 1 -98 42 -180 89 -178 243 -405 359 -528 45
-48 70 -81 59 -78 -81 25 -275 40 -292 23 -3 -3 -26 10 -50 29 -66 51 -136 81
-257 111 -88 22 -118 35 -166 70 -92 67 -118 78 -185 77 -33 0 -71 -5 -85 -11
-22 -9 -18 -11 30 -11 83 -1 120 -16 185 -72 77 -65 109 -81 227 -112 138 -37
262 -87 249 -100 -5 -5 -23 -11 -38 -13 -15 -1 -62 -10 -103 -19 -65 -14 -88
-15 -181 -4 -82 9 -123 10 -177 1 -90 -15 -170 -15 -211 -1 -18 7 -79 46 -135
88 -99 75 -126 90 -193 107 l-32 9 16 33 c22 45 75 97 228 226 72 60 141 118
154 130 23 21 23 21 -3 -32 -15 -30 -25 -56 -23 -59 7 -6 37 38 102 152 72
125 85 141 198 241 54 48 125 127 176 194 115 152 131 163 274 200 136 35 176
53 243 111 74 64 98 71 289 79 161 7 177 10 300 49 210 67 272 76 500 75 110
0 218 -5 240 -10 l40 -10 -45 -24 c-25 -13 -65 -29 -90 -37 l-45 -13 48 5 c26
3 82 21 125 41 96 45 178 73 218 73 18 1 69 -6 115 -15z m582 -1461 c3 -16 8
-37 12 -48 5 -18 -1 -24 -42 -42 -56 -26 -93 -37 -93 -28 0 21 94 145 111 145
4 0 9 -12 12 -27z m-3566 -52 c22 -11 70 -42 105 -69 126 -99 209 -123 330
-96 40 9 145 20 233 24 127 6 171 12 214 28 30 12 56 20 58 18 2 -1 -6 -11
-17 -21 -24 -22 -26 -40 -4 -31 14 5 15 4 5 -8 -16 -19 -139 -70 -219 -91
-101 -26 -251 -35 -412 -24 -257 16 -324 14 -364 -11 -20 -12 -36 -20 -36 -18
0 3 12 38 26 79 26 74 27 109 8 207 -5 27 -4 32 12 32 11 0 38 -9 61 -19z
m3613 -146 c0 -140 -1 -141 -84 -180 -134 -62 -147 -91 -21 -46 44 16 88 32
98 36 16 7 18 4 15 -20 -2 -21 -11 -31 -38 -41 -19 -7 -132 -50 -250 -95 -209
-79 -255 -98 -236 -99 7 0 397 103 519 136 14 4 17 -1 17 -28 l0 -33 -108 -33
c-169 -53 -372 -125 -372 -132 0 -4 35 1 78 11 102 25 349 76 386 81 l29 3 24
-130 c13 -71 33 -165 44 -207 42 -168 35 -249 -28 -319 -47 -52 -98 -77 -255
-127 -344 -110 -710 -159 -1258 -169 -471 -8 -525 2 -975 171 -156 59 -170 66
-173 90 -2 14 11 97 27 183 41 209 75 416 106 647 20 147 23 196 15 227 -11
41 -42 69 -75 69 -37 0 -128 -71 -255 -198 -198 -199 -296 -248 -473 -240 -85
4 -99 8 -192 52 -55 27 -127 59 -159 72 -99 40 -129 84 -88 133 27 34 79 40
265 29 254 -14 461 6 580 56 21 8 37 13 37 11 0 -6 -125 -82 -190 -115 -82
-41 -188 -78 -251 -86 -27 -4 -49 -10 -49 -14 0 -14 99 -20 163 -10 157 25
278 93 432 241 l91 88 64 -9 c36 -5 130 -24 210 -44 353 -85 558 -110 910
-110 330 0 388 7 860 104 360 73 440 95 498 134 30 20 50 28 54 21 4 -5 8 -55
8 -110z"/>
<path d="M2634 3946 c-25 -65 83 -463 117 -429 5 5 14 34 19 65 20 107 -23
262 -98 348 -27 32 -31 33 -38 16z"/>
<path d="M3875 3773 c-13 -93 -85 -479 -101 -548 -9 -38 -28 -95 -42 -125 -15
-30 -28 -59 -30 -65 -3 -5 7 1 22 15 78 71 151 358 163 643 6 130 1 165 -12
80z"/>
<path d="M1795 3695 c11 -75 27 -147 31 -142 7 6 -17 150 -28 167 -6 10 -7 1
-3 -25z"/>
<path d="M2505 3558 c3 -40 17 -219 31 -398 26 -323 27 -381 8 -647 -8 -110 1
-118 45 -41 79 137 68 392 -41 986 -33 178 -53 225 -43 100z"/>
<path d="M4235 3303 c-60 -52 -153 -132 -205 -176 -117 -101 -179 -178 -232
-285 -35 -70 -42 -94 -46 -162 -2 -44 -1 -80 4 -80 5 0 19 26 31 58 40 101
103 183 293 377 177 182 249 273 265 338 4 15 6 27 4 26 -2 0 -53 -43 -114
-96z"/>
<path d="M1750 2210 c104 -45 510 -73 744 -51 194 18 196 30 6 31 -91 0 -241
5 -335 10 -363 19 -441 21 -415 10z"/>
<path d="M1830 2071 c0 -5 51 -19 113 -31 125 -24 457 -41 457 -23 0 12 -39
18 -255 37 -259 23 -315 26 -315 17z"/>
<path d="M1930 1930 l-25 -7 30 -13 c46 -18 210 -24 293 -10 137 23 78 40
-132 39 -77 -1 -152 -4 -166 -9z"/>
<path d="M3765 1878 c-66 -23 -76 -54 -14 -44 47 8 99 32 99 46 0 13 -46 11
-85 -2z"/>
<path d="M1905 1835 c-5 -2 -23 -6 -39 -10 -22 -5 -26 -9 -17 -18 17 -17 215
-22 284 -7 108 22 56 40 -112 39 -58 0 -110 -2 -116 -4z"/>
<path d="M3840 1811 c-40 -12 -90 -41 -90 -51 0 -5 17 -3 38 4 59 22 92 39 92
48 0 9 -6 9 -40 -1z"/>
<path d="M3800 1630 c-24 -24 -26 -40 -4 -40 23 0 52 18 64 40 9 18 8 20 -15
20 -14 0 -34 -9 -45 -20z"/>
<path d="M3825 1553 c-34 -8 -85 -35 -85 -44 0 -16 42 -10 87 12 59 29 58 46
-2 32z"/>
<path d="M1790 1541 c0 -10 99 -31 147 -31 60 0 35 17 -42 29 -91 13 -105 14
-105 2z"/>
<path d="M3780 1464 c-452 -124 -746 -189 -1037 -230 -68 -9 -123 -21 -123
-26 0 -19 312 -3 517 27 277 40 670 166 778 249 30 23 8 20 -135 -20z"/>
<path d="M1848 1463 c-42 -5 -50 -18 -15 -27 62 -16 206 2 191 25 -5 9 -100
10 -176 2z"/>
<path d="M1654 1322 c23 -38 356 -59 356 -22 0 9 -74 18 -234 26 -92 5 -127 4
-122 -4z"/>
</g>
</svg>
